<svg xmlns="http://www.w3.org/2000/svg" xmlns:xlink="http://www.w3.org/1999/xlink" version="1.1" id="Capa_1" x="0px" y="0px" width="90px" height="90px" viewBox="0 0 90 90" enable-background="new 0 0 90 90" xml:space="preserve">
<g>
	<circle fill="#000000" cx="45" cy="45" r="10.375"/>
	<path fill="#000000" d="M77.418,17.531l-4.976,4.976C77.475,28.635,80.5,36.47,80.5,45c0,8.529-3.027,16.362-8.059,22.49   l-6.395-6.395C69.465,56.633,71.5,51.056,71.5,45c0-13.448-10.021-24.549-23.001-26.263l0.001-9.06   c7.165,0.705,13.713,3.544,18.992,7.879l4.976-4.976C65.059,6.297,55.475,2.5,45,2.5C21.528,2.5,2.5,21.528,2.5,45   c0,22.293,17.167,40.563,39,42.345v-7.019C23.562,78.562,9.5,63.395,9.5,45c0-18.393,14.062-33.562,31.999-35.326v9.059   C29.667,20.296,20.3,29.666,18.737,41.5h7.095c1.656-9.085,9.612-16,19.168-16c10.752,0,19.5,8.748,19.5,19.5   c0,10.752-8.748,19.5-19.5,19.5c-9.556,0-17.512-6.915-19.168-16h-7.095c1.714,12.98,12.815,23,26.263,23   c6.057,0,11.635-2.036,16.097-5.454l6.394,6.393c-5.28,4.335-11.824,7.183-18.99,7.888v7.019c21.833-1.781,39-20.052,39-42.345   C87.5,34.524,83.702,24.94,77.418,17.531z"/>
</g>
</svg>