<?xml version="1.0" encoding="UTF-8" standalone="no"?>
<svg
   xmlns:dc="http://purl.org/dc/elements/1.1/"
   xmlns:cc="http://creativecommons.org/ns#"
   xmlns:rdf="http://www.w3.org/1999/02/22-rdf-syntax-ns#"
   xmlns:svg="http://www.w3.org/2000/svg"
   xmlns="http://www.w3.org/2000/svg"
   xmlns:sodipodi="http://sodipodi.sourceforge.net/DTD/sodipodi-0.dtd"
   xmlns:inkscape="http://www.inkscape.org/namespaces/inkscape"
   version="1.1"
   id="Capa_1"
   x="0px"
   y="0px"
   width="90px"
   height="90px"
   viewBox="0 0 90 90"
   enable-background="new 0 0 90 90"
   xml:space="preserve"
   inkscape:version="0.48.3.1 r9886"
   sodipodi:docname="maise-icon.svg"><metadata
   id="metadata13"><rdf:RDF><cc:Work
       rdf:about=""><dc:format>image/svg+xml</dc:format><dc:type
         rdf:resource="http://purl.org/dc/dcmitype/StillImage" /><dc:title></dc:title></cc:Work></rdf:RDF></metadata><defs
   id="defs11" /><sodipodi:namedview
   pagecolor="#ffffff"
   bordercolor="#666666"
   borderopacity="1"
   objecttolerance="10"
   gridtolerance="10"
   guidetolerance="10"
   inkscape:pageopacity="0"
   inkscape:pageshadow="2"
   inkscape:window-width="1855"
   inkscape:window-height="1056"
   id="namedview9"
   showgrid="false"
   inkscape:zoom="2.6222222"
   inkscape:cx="-22.118644"
   inkscape:cy="45"
   inkscape:window-x="65"
   inkscape:window-y="24"
   inkscape:window-maximized="1"
   inkscape:current-layer="g3" />
<g
   id="g3">
	<circle
   cx="45"
   cy="45"
   r="10.375"
   id="circle5"
   style="fill:#515365;fill-opacity:1"
   fill="#000000"
   d="m 55.375,45 c 0,5.729954 -4.645046,10.375 -10.375,10.375 -5.729954,0 -10.375,-4.645046 -10.375,-10.375 0,-5.729954 4.645046,-10.375 10.375,-10.375 5.729954,0 10.375,4.645046 10.375,10.375 z"
   inkscape:export-filename="/home/erika/DEV/p2pu/writing-for-change/img/course-icon.png"
   inkscape:export-xdpi="264.68427"
   inkscape:export-ydpi="264.68427" />
	<path
   d="m 23.015542,81.225584 3.128539,-6.303443 C 19.419103,70.719981 14.052632,64.259421 11.331377,56.175136 8.6104402,48.091798 8.9803743,39.702414 11.794474,32.2893 l 8.100989,4.020701 c -1.816874,5.319584 -1.966355,11.254381 -0.03436,16.993939 4.290204,12.745307 17.329041,20.069334 30.177606,17.552871 l 2.889389,8.58691 C 45.912578,81.06135 38.801025,80.45965 32.414907,78.03528 l -3.128539,6.303444 c 9.026274,3.591065 19.320811,4.132157 29.248465,0.790404 C 80.78036,77.64105 92.743752,53.536967 85.255674,31.29144 78.143722,10.163307 56.045215,-1.6753914 34.78455,3.6009243 l 2.239213,6.6522387 C 54.58721,6.2023778 72.753037,16.090779 78.621442,33.524592 84.489209,50.95651 76.001225,69.818974 59.564235,77.213093 L 56.674217,68.62745 C 67.389333,63.371455 73.277649,51.502786 70.983675,39.788512 l -6.724268,2.263459 c 1.328843,9.138585 -4.0054,18.230395 -13.062074,21.278967 -10.19018,3.430122 -21.271876,-2.06997 -24.701998,-12.26015 -3.430122,-10.19018 2.06997,-21.271877 12.26015,-24.701998 9.056674,-3.048572 18.802988,0.966964 23.27077,9.048949 L 68.750523,33.15428 C 62.985182,21.399322 49.26764,15.444354 36.522333,19.734558 30.781827,21.666873 26.14482,25.375989 23.006388,30.038865 l -8.099403,-4.019124 c 3.621147,-5.79292 8.914632,-10.579783 15.48128,-13.534054 L 28.149051,5.8334477 C 8.0250599,14.486587 -2.4160736,37.279526 4.695878,58.407659 c 3.3433385,9.92923 10.000387,17.800797 18.319664,22.817925 z"
   id="path7"
   style="fill:#515365;fill-opacity:1"
   inkscape:connector-curvature="0"
   inkscape:export-filename="/home/erika/DEV/p2pu/writing-for-change/img/course-icon.png"
   inkscape:export-xdpi="264.68427"
   inkscape:export-ydpi="264.68427" />
</g>
</svg>